<?xml version="1.0" encoding="utf-8"?>
<!-- Generator: Adobe Illustrator 16.1.0, SVG Export Plug-In . SVG Version: 6.00 Build 0)  -->
<!DOCTYPE svg PUBLIC "-//W3C//DTD SVG 1.1//EN" "http://www.w3.org/Graphics/SVG/1.1/DTD/svg11.dtd">
<svg version="1.1" id="Layer_1" xmlns="http://www.w3.org/2000/svg" xmlns:xlink="http://www.w3.org/1999/xlink" x="0px" y="0px"
	 width="512px" height="512px" viewBox="0 0 512 512" enable-background="new 0 0 512 512" xml:space="preserve">
<g>
</g>
<g>
	<path d="M395.247,95.811c0,0,2.181-2.18,28.647,24.285c26.473,26.477,24.293,28.656,24.293,28.656L215.534,381.407
		c0,0,2.184-2.18-24.293-28.656c-26.477-26.469-28.656-24.289-28.656-24.289L395.247,95.811z"/>
	<path d="M153.871,337.181L128,416l78.818-25.875c0,0,2.181-2.18-24.296-28.647C156.054,335.001,153.871,337.181,153.871,337.181z"
		/>
	<path d="M403.971,87.089L421.41,69.64c0,0,17.449-17.449,43.922,9.027c26.478,26.469,9.023,43.914,9.023,43.914L456.91,140.03
		c0,0,2.181-2.18-24.284-28.656C406.151,84.909,403.971,87.089,403.971,87.089z"/>
</g>
<path d="M400,242.195V424c0,4.411-3.589,8-8,8H88c-4.411,0-8-3.589-8-8V120c0-4.411,3.589-8,8-8h245.799l48.002-48H88
	c-30.878,0-56,25.122-56,56v304c0,30.879,25.122,56,56,56h304c30.879,0,56-25.121,56-56V194.195L400,242.195z"/>
</svg>
